# xmcd
#
# Track frame offsets: 
#        151
#        112050
#        224406
#
# Disc length: 4482 seconds
#
# Revision: 26
# Processed by: cddbd v1.5.2PL0 Copyright (c) Steve Scherf et al.
# Submitted via: ExactAudioCopy v1.0b6
#
DISCID=2a118003
DTITLE=Left Behind Audio Theater - Assassins - An Experience In Sound 
DTITLE=And Drama
DYEAR=2001
DGENRE=Dramatic Audio
TTITLE0=Episode 1 - Rayford's Struggle
TTITLE1=Episode 2 - Farwell To A Friend
TTITLE2=Episode 3 - Hattie's Flight
EXTD=YEAR: 1999
EXTT0=After Buck's Safe return, four believers try to understand thier
EXTT0=place in a changing world.
EXTT1=Bruce Barnes paints a frightening picture as Buck weighs his opt
EXTT1=ions for the future.
EXTT2=As Buck gets drawn into the inner circle of the Antichrist, Rayf
EXTT2=ord faces discipline for his faith.
PLAYORDER=
